<svg width="228" height="277" viewBox="0 0 228 277" fill="none" xmlns="http://www.w3.org/2000/svg">
<path d="M163 277L200 39L65 277H163Z" fill="#F57C00"/>
<path d="M65 277L28 39L164 277H65Z" fill="#FFCA28" fill-opacity="0.8"/>
<path d="M65 277L0.5 116L103.5 209.5L65 277Z" fill="#F57C00" fill-opacity="0.8"/>
<path d="M164 277L227.5 117L126.5 211.5L164 277Z" fill="#FFCA28" fill-opacity="0.9"/>
<g filter="url(#filter0_bdi)">
<path d="M99.368 212L26.792 0.0319824H50.408L114.344 188.096L177.992 0.0319824H201.32L128.744 212H99.368Z" fill="black"/>
<path d="M99.368 212L98.4219 212.324L98.6534 213H99.368V212ZM26.792 0.0319824V-0.968018H25.3926L25.8459 0.355912L26.792 0.0319824ZM50.408 0.0319824L51.3548 -0.289894L51.1242 -0.968018H50.408V0.0319824ZM114.344 188.096L113.397 188.418L114.346 191.209L115.291 188.417L114.344 188.096ZM177.992 0.0319824V-0.968018H177.275L177.045 -0.288594L177.992 0.0319824ZM201.32 0.0319824L202.266 0.355912L202.719 -0.968018H201.32V0.0319824ZM128.744 212V213H129.459L129.69 212.324L128.744 212ZM100.314 211.676L27.7381 -0.291948L25.8459 0.355912L98.4219 212.324L100.314 211.676ZM26.792 1.03198H50.408V-0.968018H26.792V1.03198ZM49.4612 0.353859L113.397 188.418L115.291 187.774L51.3548 -0.289894L49.4612 0.353859ZM115.291 188.417L178.939 0.352559L177.045 -0.288594L113.397 187.775L115.291 188.417ZM177.992 1.03198H201.32V-0.968018H177.992V1.03198ZM200.374 -0.291948L127.798 211.676L129.69 212.324L202.266 0.355912L200.374 -0.291948ZM128.744 211H99.368V213H128.744V211Z" fill="black"/>
</g>
<defs>
<filter id="filter0_bdi" x="22.792" y="-3.96802" width="182.528" height="223.968" filterUnits="userSpaceOnUse" color-interpolation-filters="sRGB">
<feFlood flood-opacity="0" result="BackgroundImageFix"/>
<feGaussianBlur in="BackgroundImage" stdDeviation="2"/>
<feComposite in2="SourceAlpha" operator="in" result="effect1_backgroundBlur"/>
<feColorMatrix in="SourceAlpha" type="matrix" values="0 0 0 0 0 0 0 0 0 0 0 0 0 0 0 0 0 0 127 0"/>
<feOffset dy="4"/>
<feGaussianBlur stdDeviation="2"/>
<feColorMatrix type="matrix" values="0 0 0 0 0 0 0 0 0 0 0 0 0 0 0 0 0 0 0.25 0"/>
<feBlend mode="normal" in2="effect1_backgroundBlur" result="effect2_dropShadow"/>
<feBlend mode="normal" in="SourceGraphic" in2="effect2_dropShadow" result="shape"/>
<feColorMatrix in="SourceAlpha" type="matrix" values="0 0 0 0 0 0 0 0 0 0 0 0 0 0 0 0 0 0 127 0" result="hardAlpha"/>
<feOffset dy="4"/>
<feGaussianBlur stdDeviation="2"/>
<feComposite in2="hardAlpha" operator="arithmetic" k2="-1" k3="1"/>
<feColorMatrix type="matrix" values="0 0 0 0 0 0 0 0 0 0 0 0 0 0 0 0 0 0 0.25 0"/>
<feBlend mode="normal" in2="shape" result="effect3_innerShadow"/>
</filter>
</defs>
</svg>
